<svg width="395" height="46" viewBox="0 0 395 46" fill="none" xmlns="http://www.w3.org/2000/svg">
<path d="M0 21L350 21" stroke="#28553F"/>
<circle cx="372" cy="23" r="23" fill="#28553F"/>
<circle cx="372" cy="23" r="23" stroke="#9C9C9C"/>
<path d="M367.84 31.2C366.88 31.1733 366.033 30.94 365.3 30.5C364.567 30.06 363.953 29.4867 363.46 28.78C362.967 28.06 362.593 27.2867 362.34 26.46C362.087 25.62 361.96 24.8 361.96 24C361.96 23.1467 362.093 22.2933 362.36 21.44C362.64 20.5867 363.033 19.8133 363.54 19.12C364.06 18.4133 364.68 17.8533 365.4 17.44C366.12 17.0133 366.933 16.8 367.84 16.8C368.813 16.8 369.66 17.0267 370.38 17.48C371.113 17.9333 371.727 18.52 372.22 19.24C372.713 19.96 373.08 20.74 373.32 21.58C373.573 22.42 373.7 23.2267 373.7 24C373.7 24.8667 373.56 25.7267 373.28 26.58C373.013 27.42 372.627 28.1867 372.12 28.88C371.613 29.5733 370.993 30.1333 370.26 30.56C369.54 30.9733 368.733 31.1867 367.84 31.2ZM363.38 24C363.407 24.6933 363.513 25.3933 363.7 26.1C363.9 26.7933 364.187 27.4333 364.56 28.02C364.933 28.5933 365.387 29.06 365.92 29.42C366.467 29.7667 367.107 29.94 367.84 29.94C368.587 29.94 369.24 29.7533 369.8 29.38C370.36 29.0067 370.82 28.52 371.18 27.92C371.553 27.3067 371.833 26.66 372.02 25.98C372.207 25.2867 372.3 24.6267 372.3 24C372.3 23.3067 372.2 22.6133 372 21.92C371.8 21.2133 371.507 20.5733 371.12 20C370.733 19.4133 370.267 18.9467 369.72 18.6C369.173 18.24 368.547 18.06 367.84 18.06C367.08 18.06 366.42 18.2533 365.86 18.64C365.3 19.0133 364.833 19.5 364.46 20.1C364.1 20.7 363.827 21.3467 363.64 22.04C363.467 22.72 363.38 23.3733 363.38 24ZM382.533 29.76V31H375.913V29.76H378.613V18.14C378.493 18.3 378.313 18.48 378.073 18.68C377.847 18.8667 377.58 19.0533 377.273 19.24C376.967 19.4133 376.653 19.56 376.333 19.68C376.013 19.8 375.72 19.86 375.453 19.86V18.58C375.813 18.58 376.173 18.4867 376.533 18.3C376.893 18.1 377.227 17.88 377.533 17.64C377.853 17.3867 378.107 17.16 378.293 16.96C378.493 16.7467 378.6 16.6333 378.613 16.62H379.993V29.76H382.533Z" fill="white"/>
</svg>
