<svg width="396" height="46" viewBox="0 0 396 46" fill="none" xmlns="http://www.w3.org/2000/svg">
<line y1="27.5" x2="350" y2="27.5" stroke="#28553F"/>
<circle cx="373" cy="23" r="23" fill="#28553F"/>
<circle cx="373" cy="23" r="23" stroke="#9C9C9C"/>
<path d="M366.84 31.2C365.88 31.1733 365.033 30.94 364.3 30.5C363.567 30.06 362.953 29.4867 362.46 28.78C361.967 28.06 361.593 27.2867 361.34 26.46C361.087 25.62 360.96 24.8 360.96 24C360.96 23.1467 361.093 22.2933 361.36 21.44C361.64 20.5867 362.033 19.8133 362.54 19.12C363.06 18.4133 363.68 17.8533 364.4 17.44C365.12 17.0133 365.933 16.8 366.84 16.8C367.813 16.8 368.66 17.0267 369.38 17.48C370.113 17.9333 370.727 18.52 371.22 19.24C371.713 19.96 372.08 20.74 372.32 21.58C372.573 22.42 372.7 23.2267 372.7 24C372.7 24.8667 372.56 25.7267 372.28 26.58C372.013 27.42 371.627 28.1867 371.12 28.88C370.613 29.5733 369.993 30.1333 369.26 30.56C368.54 30.9733 367.733 31.1867 366.84 31.2ZM362.38 24C362.407 24.6933 362.513 25.3933 362.7 26.1C362.9 26.7933 363.187 27.4333 363.56 28.02C363.933 28.5933 364.387 29.06 364.92 29.42C365.467 29.7667 366.107 29.94 366.84 29.94C367.587 29.94 368.24 29.7533 368.8 29.38C369.36 29.0067 369.82 28.52 370.18 27.92C370.553 27.3067 370.833 26.66 371.02 25.98C371.207 25.2867 371.3 24.6267 371.3 24C371.3 23.3067 371.2 22.6133 371 21.92C370.8 21.2133 370.507 20.5733 370.12 20C369.733 19.4133 369.267 18.9467 368.72 18.6C368.173 18.24 367.547 18.06 366.84 18.06C366.08 18.06 365.42 18.2533 364.86 18.64C364.3 19.0133 363.833 19.5 363.46 20.1C363.1 20.7 362.827 21.3467 362.64 22.04C362.467 22.72 362.38 23.3733 362.38 24ZM374.632 31C374.619 30.16 374.685 29.42 374.832 28.78C374.979 28.14 375.199 27.5733 375.492 27.08C375.799 26.5867 376.165 26.16 376.592 25.8C377.019 25.4267 377.499 25.1 378.032 24.82C378.539 24.54 379.065 24.2867 379.612 24.06C380.159 23.82 380.665 23.56 381.132 23.28C381.599 23 381.972 22.66 382.252 22.26C382.545 21.8467 382.692 21.3333 382.692 20.72C382.692 20.2133 382.579 19.7467 382.352 19.32C382.139 18.8933 381.805 18.5533 381.352 18.3C380.899 18.0333 380.325 17.9 379.632 17.9C378.952 17.9 378.345 18.0133 377.812 18.24C377.292 18.4667 376.852 18.74 376.492 19.06C376.145 19.38 375.865 19.6733 375.652 19.94L374.752 19.06C374.832 18.9667 374.992 18.7867 375.232 18.52C375.485 18.2533 375.819 17.9733 376.232 17.68C376.659 17.3867 377.159 17.14 377.732 16.94C378.319 16.7267 378.999 16.62 379.772 16.62C380.759 16.62 381.579 16.8133 382.232 17.2C382.885 17.5733 383.372 18.0667 383.692 18.68C384.025 19.2933 384.192 19.9667 384.192 20.7C384.192 21.4067 384.052 22.0067 383.772 22.5C383.505 22.98 383.152 23.3867 382.712 23.72C382.285 24.04 381.819 24.32 381.312 24.56C380.819 24.8 380.352 25.0267 379.912 25.24C379.059 25.6267 378.379 26.0067 377.872 26.38C377.365 26.7533 376.985 27.1267 376.732 27.5C376.492 27.8733 376.332 28.2467 376.252 28.62C376.172 28.9933 376.125 29.3733 376.112 29.76H384.212V31H374.632Z" fill="white"/>
</svg>
