<svg width="391" height="46" viewBox="0 0 391 46" fill="none" xmlns="http://www.w3.org/2000/svg">
<line x1="0.000976562" y1="31.5" x2="350.001" y2="31.5" stroke="#28553F"/>
<path d="M390.574 23C390.574 35.7025 380.235 46 367.481 46C354.728 46 344.389 35.7025 344.389 23C344.389 10.2975 354.728 0 367.481 0C380.235 0 390.574 10.2975 390.574 23Z" fill="#28553F"/>
<path d="M390.574 23C390.574 35.7025 380.235 46 367.481 46C354.728 46 344.389 35.7025 344.389 23C344.389 10.2975 354.728 0 367.481 0C380.235 0 390.574 10.2975 390.574 23Z" stroke="#9C9C9C"/>
<path d="M361.269 31.2C360.309 31.1733 359.462 30.94 358.729 30.5C357.995 30.06 357.382 29.4867 356.889 28.78C356.395 28.06 356.022 27.2867 355.769 26.46C355.515 25.62 355.389 24.8 355.389 24C355.389 23.1467 355.522 22.2933 355.789 21.44C356.069 20.5867 356.462 19.8133 356.969 19.12C357.489 18.4133 358.109 17.8533 358.829 17.44C359.549 17.0133 360.362 16.8 361.269 16.8C362.242 16.8 363.089 17.0267 363.809 17.48C364.542 17.9333 365.155 18.52 365.649 19.24C366.142 19.96 366.509 20.74 366.749 21.58C367.002 22.42 367.129 23.2267 367.129 24C367.129 24.8667 366.989 25.7267 366.709 26.58C366.442 27.42 366.055 28.1867 365.549 28.88C365.042 29.5733 364.422 30.1333 363.689 30.56C362.969 30.9733 362.162 31.1867 361.269 31.2ZM356.809 24C356.835 24.6933 356.942 25.3933 357.129 26.1C357.329 26.7933 357.615 27.4333 357.989 28.02C358.362 28.5933 358.815 29.06 359.349 29.42C359.895 29.7667 360.535 29.94 361.269 29.94C362.015 29.94 362.669 29.7533 363.229 29.38C363.789 29.0067 364.249 28.52 364.609 27.92C364.982 27.3067 365.262 26.66 365.449 25.98C365.635 25.2867 365.729 24.6267 365.729 24C365.729 23.3067 365.629 22.6133 365.429 21.92C365.229 21.2133 364.935 20.5733 364.549 20C364.162 19.4133 363.695 18.9467 363.149 18.6C362.602 18.24 361.975 18.06 361.269 18.06C360.509 18.06 359.849 18.2533 359.289 18.64C358.729 19.0133 358.262 19.5 357.889 20.1C357.529 20.7 357.255 21.3467 357.069 22.04C356.895 22.72 356.809 23.3733 356.809 24ZM373.801 31.18C372.961 31.18 372.201 31.04 371.521 30.76C370.841 30.48 370.287 30.0933 369.861 29.6C369.434 29.1067 369.167 28.5333 369.061 27.88L369.901 27.12C369.927 27.5733 370.107 28.02 370.441 28.46C370.774 28.8867 371.227 29.2333 371.801 29.5C372.387 29.7667 373.054 29.9 373.801 29.9C374.467 29.9 375.067 29.7867 375.601 29.56C376.147 29.32 376.574 29 376.881 28.6C377.201 28.1867 377.361 27.7067 377.361 27.16C377.361 26.5733 377.174 26.0733 376.801 25.66C376.427 25.2333 375.901 24.9067 375.221 24.68C374.541 24.4533 373.734 24.34 372.801 24.34H372.121V23.16H372.801C374.094 23.16 375.114 22.9467 375.861 22.52C376.607 22.0933 376.981 21.4533 376.981 20.6C376.981 20.04 376.827 19.5533 376.521 19.14C376.227 18.7267 375.827 18.4067 375.321 18.18C374.827 17.9533 374.287 17.84 373.701 17.84C372.821 17.84 372.067 18.0333 371.441 18.42C370.814 18.8067 370.374 19.2867 370.121 19.86L369.181 18.94C369.434 18.46 369.787 18.0467 370.241 17.7C370.707 17.3533 371.234 17.0867 371.821 16.9C372.421 16.7133 373.041 16.62 373.681 16.62C374.587 16.62 375.394 16.7933 376.101 17.14C376.821 17.4867 377.381 17.9533 377.781 18.54C378.194 19.1267 378.401 19.8 378.401 20.56C378.401 21.0933 378.294 21.5733 378.081 22C377.867 22.4133 377.554 22.7667 377.141 23.06C376.727 23.34 376.221 23.5533 375.621 23.7C376.247 23.82 376.794 24.0533 377.261 24.4C377.741 24.7467 378.107 25.1733 378.361 25.68C378.627 26.1733 378.761 26.72 378.761 27.32C378.761 28.12 378.527 28.8067 378.061 29.38C377.607 29.9533 377.007 30.4 376.261 30.72C375.514 31.0267 374.694 31.18 373.801 31.18Z" fill="white"/>
</svg>
