<svg width="393" height="46" viewBox="0 0 393 46" fill="none" xmlns="http://www.w3.org/2000/svg">
<line x1="42.6494" y1="24.751" x2="392.649" y2="24.751" stroke="#28553F"/>
<path d="M46.5927 23C46.5927 35.7025 36.2537 46 23.5 46C10.7462 46 0.407227 35.7025 0.407227 23C0.407227 10.2975 10.7462 0 23.5 0C36.2537 0 46.5927 10.2975 46.5927 23Z" fill="#28553F"/>
<path d="M46.5927 23C46.5927 35.7025 36.2537 46 23.5 46C10.7462 46 0.407227 35.7025 0.407227 23C0.407227 10.2975 10.7462 0 23.5 0C36.2537 0 46.5927 10.2975 46.5927 23Z" stroke="#9C9C9C"/>
<path d="M17.2863 31.2C16.3263 31.1733 15.4796 30.94 14.7463 30.5C14.013 30.06 13.3996 29.4867 12.9063 28.78C12.413 28.06 12.0396 27.2867 11.7863 26.46C11.533 25.62 11.4063 24.8 11.4063 24C11.4063 23.1467 11.5396 22.2933 11.8063 21.44C12.0863 20.5867 12.4796 19.8133 12.9863 19.12C13.5063 18.4133 14.1263 17.8533 14.8463 17.44C15.5663 17.0133 16.3796 16.8 17.2863 16.8C18.2596 16.8 19.1063 17.0267 19.8263 17.48C20.5596 17.9333 21.173 18.52 21.6663 19.24C22.1596 19.96 22.5263 20.74 22.7663 21.58C23.0196 22.42 23.1463 23.2267 23.1463 24C23.1463 24.8667 23.0063 25.7267 22.7263 26.58C22.4596 27.42 22.073 28.1867 21.5663 28.88C21.0596 29.5733 20.4396 30.1333 19.7063 30.56C18.9863 30.9733 18.1796 31.1867 17.2863 31.2ZM12.8263 24C12.853 24.6933 12.9596 25.3933 13.1463 26.1C13.3463 26.7933 13.633 27.4333 14.0063 28.02C14.3796 28.5933 14.833 29.06 15.3663 29.42C15.913 29.7667 16.553 29.94 17.2863 29.94C18.033 29.94 18.6863 29.7533 19.2463 29.38C19.8063 29.0067 20.2663 28.52 20.6263 27.92C20.9996 27.3067 21.2796 26.66 21.4663 25.98C21.653 25.2867 21.7463 24.6267 21.7463 24C21.7463 23.3067 21.6463 22.6133 21.4463 21.92C21.2463 21.2133 20.953 20.5733 20.5663 20C20.1796 19.4133 19.713 18.9467 19.1663 18.6C18.6196 18.24 17.993 18.06 17.2863 18.06C16.5263 18.06 15.8663 18.2533 15.3063 18.64C14.7463 19.0133 14.2796 19.5 13.9063 20.1C13.5463 20.7 13.273 21.3467 13.0863 22.04C12.913 22.72 12.8263 23.3733 12.8263 24ZM31.6182 31V27.2H24.6382V25.98L32.0382 16.8H32.9782V25.96H34.7382V27.2H32.9782V31H31.6182ZM26.0982 25.96H31.7382V18.92L26.0982 25.96Z" fill="white"/>
</svg>
