<svg width="390" height="46" viewBox="0 0 390 46" fill="none" xmlns="http://www.w3.org/2000/svg">
<line x1="39.9707" y1="29.5" x2="389.971" y2="29.5" stroke="#28553F"/>
<circle cx="23" cy="23" r="23" fill="#28553F"/>
<circle cx="23" cy="23" r="23" stroke="#9C9C9C"/>
<path d="M16.84 31.2C15.88 31.1733 15.0333 30.94 14.3 30.5C13.5667 30.06 12.9533 29.4867 12.46 28.78C11.9667 28.06 11.5933 27.2867 11.34 26.46C11.0867 25.62 10.96 24.8 10.96 24C10.96 23.1467 11.0933 22.2933 11.36 21.44C11.64 20.5867 12.0333 19.8133 12.54 19.12C13.06 18.4133 13.68 17.8533 14.4 17.44C15.12 17.0133 15.9333 16.8 16.84 16.8C17.8133 16.8 18.66 17.0267 19.38 17.48C20.1133 17.9333 20.7267 18.52 21.22 19.24C21.7133 19.96 22.08 20.74 22.32 21.58C22.5733 22.42 22.7 23.2267 22.7 24C22.7 24.8667 22.56 25.7267 22.28 26.58C22.0133 27.42 21.6267 28.1867 21.12 28.88C20.6133 29.5733 19.9933 30.1333 19.26 30.56C18.54 30.9733 17.7333 31.1867 16.84 31.2ZM12.38 24C12.4067 24.6933 12.5133 25.3933 12.7 26.1C12.9 26.7933 13.1867 27.4333 13.56 28.02C13.9333 28.5933 14.3867 29.06 14.92 29.42C15.4667 29.7667 16.1067 29.94 16.84 29.94C17.5867 29.94 18.24 29.7533 18.8 29.38C19.36 29.0067 19.82 28.52 20.18 27.92C20.5533 27.3067 20.8333 26.66 21.02 25.98C21.2067 25.2867 21.3 24.6267 21.3 24C21.3 23.3067 21.2 22.6133 21 21.92C20.8 21.2133 20.5067 20.5733 20.12 20C19.7333 19.4133 19.2667 18.9467 18.72 18.6C18.1733 18.24 17.5467 18.06 16.84 18.06C16.08 18.06 15.42 18.2533 14.86 18.64C14.3 19.0133 13.8333 19.5 13.46 20.1C13.1 20.7 12.8267 21.3467 12.64 22.04C12.4667 22.72 12.38 23.3733 12.38 24ZM29.0319 31.2C28.0185 31.2 27.1052 30.9533 26.2919 30.46C25.4919 29.9533 24.8852 29.2867 24.4719 28.46L25.3919 27.78C25.7519 28.4333 26.2585 28.96 26.9119 29.36C27.5652 29.76 28.2785 29.96 29.0519 29.96C29.7185 29.96 30.3119 29.8133 30.8319 29.52C31.3652 29.2267 31.7852 28.8267 32.0919 28.32C32.4119 27.8 32.5719 27.2 32.5719 26.52C32.5719 25.8667 32.4185 25.2933 32.1119 24.8C31.8052 24.2933 31.3985 23.9 30.8919 23.62C30.3852 23.3267 29.8119 23.18 29.1719 23.18C28.5585 23.18 27.9719 23.32 27.4119 23.6C26.8519 23.88 26.3985 24.2733 26.0519 24.78H24.7719L26.3719 16.8H33.2319V18.06H27.3919L26.3919 23.16C26.7385 22.7867 27.1652 22.5 27.6719 22.3C28.1919 22.0867 28.7452 21.98 29.3319 21.98C30.1985 21.98 30.9785 22.1733 31.6719 22.56C32.3785 22.9467 32.9319 23.48 33.3319 24.16C33.7452 24.8267 33.9519 25.6067 33.9519 26.5C33.9519 27.42 33.7319 28.24 33.2919 28.96C32.8519 29.6667 32.2585 30.22 31.5119 30.62C30.7785 31.0067 29.9519 31.2 29.0319 31.2Z" fill="white"/>
</svg>
