<svg width="393" height="46" viewBox="0 0 393 46" fill="none" xmlns="http://www.w3.org/2000/svg">
<line x1="42.998" y1="29" x2="392.998" y2="29" stroke="#28553F"/>
<path d="M46.5937 23C46.5937 35.7025 36.2547 46 23.5009 46C10.7472 46 0.408203 35.7025 0.408203 23C0.408203 10.2975 10.7472 0 23.5009 0C36.2547 0 46.5937 10.2975 46.5937 23Z" fill="#28553F"/>
<path d="M46.5937 23C46.5937 35.7025 36.2547 46 23.5009 46C10.7472 46 0.408203 35.7025 0.408203 23C0.408203 10.2975 10.7472 0 23.5009 0C36.2547 0 46.5937 10.2975 46.5937 23Z" stroke="#9C9C9C"/>
<path d="M17.2892 31.2C16.3292 31.1733 15.4826 30.94 14.7492 30.5C14.0159 30.06 13.4026 29.4867 12.9092 28.78C12.4159 28.06 12.0426 27.2867 11.7892 26.46C11.5359 25.62 11.4092 24.8 11.4092 24C11.4092 23.1467 11.5426 22.2933 11.8092 21.44C12.0892 20.5867 12.4826 19.8133 12.9892 19.12C13.5092 18.4133 14.1292 17.8533 14.8492 17.44C15.5692 17.0133 16.3826 16.8 17.2892 16.8C18.2626 16.8 19.1092 17.0267 19.8292 17.48C20.5626 17.9333 21.1759 18.52 21.6692 19.24C22.1626 19.96 22.5292 20.74 22.7692 21.58C23.0226 22.42 23.1492 23.2267 23.1492 24C23.1492 24.8667 23.0092 25.7267 22.7292 26.58C22.4626 27.42 22.0759 28.1867 21.5692 28.88C21.0626 29.5733 20.4426 30.1333 19.7092 30.56C18.9892 30.9733 18.1826 31.1867 17.2892 31.2ZM12.8292 24C12.8559 24.6933 12.9626 25.3933 13.1492 26.1C13.3492 26.7933 13.6359 27.4333 14.0092 28.02C14.3826 28.5933 14.8359 29.06 15.3692 29.42C15.9159 29.7667 16.5559 29.94 17.2892 29.94C18.0359 29.94 18.6892 29.7533 19.2492 29.38C19.8092 29.0067 20.2692 28.52 20.6292 27.92C21.0026 27.3067 21.2826 26.66 21.4692 25.98C21.6559 25.2867 21.7492 24.6267 21.7492 24C21.7492 23.3067 21.6492 22.6133 21.4492 21.92C21.2492 21.2133 20.9559 20.5733 20.5692 20C20.1826 19.4133 19.7159 18.9467 19.1692 18.6C18.6226 18.24 17.9959 18.06 17.2892 18.06C16.5292 18.06 15.8692 18.2533 15.3092 18.64C14.7492 19.0133 14.2826 19.5 13.9092 20.1C13.5492 20.7 13.2759 21.3467 13.0892 22.04C12.9159 22.72 12.8292 23.3733 12.8292 24ZM35.3011 26.32C35.3011 25.4267 35.0811 24.62 34.6411 23.9C34.2144 23.1667 33.6278 22.5867 32.8811 22.16C32.1478 21.7333 31.3278 21.52 30.4211 21.52C29.8211 21.52 29.2544 21.6267 28.7211 21.84C28.2011 22.0533 27.7478 22.3533 27.3611 22.74C26.9744 23.1267 26.6811 23.58 26.4811 24.1C26.4811 22.7933 26.6411 21.68 26.9611 20.76C27.2944 19.84 27.7544 19.1333 28.3411 18.64C28.9278 18.1467 29.6144 17.9 30.4011 17.9C31.1478 17.9 31.8211 18.1067 32.4211 18.52C33.0344 18.92 33.4811 19.46 33.7611 20.14L34.6411 19.34C34.2544 18.5267 33.6878 17.8867 32.9411 17.42C32.1944 16.94 31.3478 16.7 30.4011 16.7C29.3611 16.7 28.4478 17.0133 27.6611 17.64C26.8744 18.2667 26.2611 19.2133 25.8211 20.48C25.3811 21.7333 25.1611 23.3267 25.1611 25.26C25.1611 26.4867 25.3811 27.5467 25.8211 28.44C26.2611 29.3333 26.8611 30.02 27.6211 30.5C28.3944 30.9667 29.2744 31.2 30.2611 31.2C31.2078 31.2 32.0611 30.98 32.8211 30.54C33.5811 30.1 34.1811 29.5133 34.6211 28.78C35.0744 28.0333 35.3011 27.2133 35.3011 26.32ZM30.3011 30C29.6211 30 29.0011 29.8333 28.4411 29.5C27.8811 29.1667 27.4278 28.72 27.0811 28.16C26.7478 27.6 26.5811 26.9867 26.5811 26.32C26.5811 25.64 26.7478 25.0267 27.0811 24.48C27.4144 23.92 27.8611 23.4733 28.4211 23.14C28.9944 22.8067 29.6211 22.64 30.3011 22.64C30.9678 22.64 31.5811 22.8067 32.1411 23.14C32.7011 23.4733 33.1478 23.92 33.4811 24.48C33.8278 25.04 34.0011 25.6533 34.0011 26.32C34.0011 26.9867 33.8278 27.6 33.4811 28.16C33.1478 28.72 32.7011 29.1667 32.1411 29.5C31.5811 29.8333 30.9678 30 30.3011 30Z" fill="white"/>
</svg>
