<svg width="33" height="32" viewBox="0 0 33 32" fill="none" xmlns="http://www.w3.org/2000/svg">
<rect opacity="0.12" x="0.608398" width="32" height="32" rx="4" fill="white"/>
<path fill-rule="evenodd" clip-rule="evenodd" d="M22.8686 10.743C23.5539 10.9276 24.0943 11.4679 24.2787 12.1533C24.6215 13.4053 24.6083 16.0149 24.6083 16.0149C24.6083 16.0149 24.6083 18.6112 24.2789 19.8632C24.0943 20.5485 23.554 21.0889 22.8686 21.2734C21.6165 21.603 16.6084 21.603 16.6084 21.603C16.6084 21.603 11.6133 21.603 10.3481 21.2603C9.66272 21.0758 9.12243 20.5353 8.93786 19.8501C8.6084 18.6112 8.6084 16.0017 8.6084 16.0017C8.6084 16.0017 8.6084 13.4053 8.93786 12.1533C9.12231 11.468 9.6759 10.9144 10.348 10.73C11.6001 10.4004 16.6082 10.4004 16.6082 10.4004C16.6082 10.4004 21.6165 10.4004 22.8686 10.743ZM19.1783 16.0017L15.0136 18.4004V13.603L19.1783 16.0017Z" fill="white"/>
</svg>
